<svg height="511pt" viewBox="-42 1 511 511.99998" width="511pt" xmlns="http://www.w3.org/2000/svg"><path d="m179.699219 324.265625h-22.707031c-22.460938 0-42.757813-13.386719-51.609376-34.03125-6.9375-16.183594-5.878906-34.6875 2.859376-49.976563l20.257812-35.457031h51.199219zm0 0" fill="#c38325"/><path d="m247.964844 324.265625h22.707031c22.460937 0 42.761719-13.386719 51.613281-34.03125 6.9375-16.183594 5.878906-34.6875-2.859375-49.976563l-20.257812-35.457031h-51.203125zm0 0" fill="#c38325"/><path d="m256.5 324.265625h93.867188c37.703124 0 68.265624 30.566406 68.265624 68.269531v110.929688h-409.597656v-110.929688c0-37.703125 30.5625-68.269531 68.265625-68.269531zm0 0" fill="#eaeae8"/><path d="m247.964844 324.265625v-59.730469h-68.265625v59.730469h-17.066407l25.601563 51.203125h59.730469l17.070312-51.203125zm0 0" fill="#fdc9a6"/><path d="m179.699219 291.515625c21.757812 9.535156 46.511719 9.535156 68.265625 0v-26.980469h-68.265625zm0 0" fill="#f6bb92"/><path d="m128.5 93.867188v102.398437c0 47.128906 38.207031 85.335937 85.332031 85.335937 47.128907 0 85.335938-38.207031 85.335938-85.335937v-102.398437c0-47.128907-38.207031-85.335938-85.335938-85.335938-47.125.003906-85.332031 38.207031-85.332031 85.335938zm0 0" fill="#fdc9a6"/><path d="m213.832031 213.332031c-2.261719 0-4.429687-.898437-6.03125-2.5l-8.535156-8.53125c-2.597656-2.597656-3.242187-6.5625-1.601563-9.847656l8.53125-17.066406c2.109376-4.21875 7.234376-5.929688 11.453126-3.824219s5.929687 7.234375 3.824218 11.453125l-5.789062 11.542969 4.183594 4.183594c3.34375 3.316406 3.367187 8.722656.050781 12.066406-1.609375 1.621094-3.800781 2.53125-6.085938 2.523437zm0 0" fill="#c38325"/><path d="m213.832031 242.9375c-7.242187.007812-14.386719-1.667969-20.871093-4.898438-4.21875-2.105468-5.929688-7.230468-3.828126-11.449218 2.105469-4.21875 7.230469-5.929688 11.449219-3.828125 8.34375 4.152343 18.152344 4.152343 26.496094 0 4.199219-2.140625 9.335937-.46875 11.476563 3.730469 2.140624 4.199218.46875 9.335937-3.730469 11.476562-.039063.019531-.078125.039062-.117188.058594-6.484375 3.234375-13.628906 4.914062-20.875 4.910156zm0 0" fill="#c38325"/><path d="m299.167969 162.132812h21.332031c11.78125 0 21.332031 9.550782 21.332031 21.332032 0 11.785156-9.550781 21.335937-21.332031 21.335937h-21.332031zm0 0" fill="#f6bb92"/><path d="m128.5 204.800781h-21.332031c-11.785157 0-21.335938-9.550781-21.335938-21.335937 0-11.78125 9.550781-21.332032 21.335938-21.332032h21.332031zm0 0" fill="#f6bb92"/><path d="m162.632812 324.265625h-25.597656l-8.535156 51.203125 59.734375-.027344zm0 0" fill="#d9d9d9"/><path d="m265.035156 324.265625h25.597656l8.535157 51.203125-59.734375.023438zm0 0" fill="#d9d9d9"/><path d="m307.699219 187.734375h-68.265625l-25.601563-17.066406-25.597656 17.066406h-68.269531v-51.203125h187.734375zm0 0" fill="#a8d6da"/><path d="m299.167969 136.53125h-170.667969v51.203125h59.734375l25.597656-17.066406 25.601563 17.066406h59.734375zm0 0" fill="#8aced8"/><g fill="#d9d9d9"><path d="m188.234375 375.441406 25.597656 76.824219-68.265625-42.664063zm0 0"/><path d="m239.433594 375.441406-25.601563 76.824219 68.269531-42.664063zm0 0"/><path d="m239.433594 460.800781h17.066406v17.066407h-17.066406zm0 0"/><path d="m222.367188 503.46875v-58.515625c.632812-4.710937-2.671876-9.046875-7.386719-9.679687-4.710938-.632813-9.046875 2.671874-9.679688 7.386718-.101562.761719-.101562 1.53125 0 2.292969v58.511719h17.066407zm0 0"/></g><path d="m239.433594 375.46875v-.027344l-25.601563 76.824219-25.597656-76.824219v.027344zm0 0" fill="#3b869e"/><path d="m351.21875 435.148438-.851562-1.800782.417968-23.59375c.085938-4.714844-3.667968-8.601562-8.378906-8.6875-4.714844-.085937-8.601562 3.667969-8.6875 8.378906l-.453125 25.601563c-.019531 1.316406.273437 2.621094.855469 3.804687l1.703125 3.601563c7.96875 17.035156 7.96875 36.726563 0 53.761719l-1.703125 3.601562c-.527344 1.144532-.789063 2.398438-.769532 3.660156h17.921876c10.105468-21.660156 10.085937-46.683593-.054688-68.328124zm0 0" fill="#d9d9d9"/><path d="m93.511719 499.804688-1.703125-3.589844c-7.96875-17.035156-7.96875-36.726563 0-53.761719l1.703125-3.609375c.582031-1.183594.875-2.488281.855469-3.804688l-.453126-25.601562c-.179687-4.667969-4.007812-8.359375-8.675781-8.371094-4.714843.078125-8.46875 3.964844-8.390625 8.675782v.011718l.453125 23.59375-.855469 1.851563c-10.125 21.644531-10.125 46.667969 0 68.308593h17.921876c0-1.28125-.292969-2.546874-.855469-3.703124zm0 0" fill="#d9d9d9"/><path d="m213.832031 8.535156c-47.125 0-85.332031 38.203125-85.332031 85.332032v42.667968l85.332031-51.203125 85.335938 51.203125v-42.667968c0-47.128907-38.207031-85.332032-85.335938-85.332032zm0 0" fill="#d18d28"/><path d="m9.035156 512h409.597656c4.714844 0 8.535157-3.820312 8.535157-8.535156v-110.929688c-.046875-42.398437-34.40625-76.753906-76.800781-76.800781h-35.992188c22.304688-20.375 27.484375-53.5 12.457031-79.710937l-12.960937-22.691407h6.628906c16.496094 0 29.867188-13.371093 29.867188-29.863281 0-16.496094-13.371094-29.867188-29.867188-29.867188h-4.265625v-17.066406c0-4.714844-3.820313-8.535156-8.535156-8.535156v-34.132812c0-51.839844-42.023438-93.867188-93.867188-93.867188-51.839843 0-93.867187 42.027344-93.867187 93.867188v34.132812c-4.710938 0-8.53125 3.820312-8.53125 8.535156v17.066406h-4.265625c-16.496094 0-29.867188 13.371094-29.867188 29.863282 0 16.496094 13.371094 29.867187 29.867188 29.867187h6.628906l-12.960937 22.691407c-15.027344 26.207031-9.847657 59.335937 12.457031 79.710937h-35.992188c-42.398437.046875-76.753906 34.402344-76.800781 76.796875v110.933594c0 4.714844 3.820312 8.535156 8.535156 8.535156zm189.199219-79.539062-37.9375-23.714844 23.710937-18.984375 2.5625 7.601562zm-53.972656-99.660157h13.097656l17.066406 34.132813h-35.839843zm74.308593-169.234375c-2.867187-1.914062-6.605468-1.914062-9.472656 0l-23.425781 15.632813h-48.636719v-34.132813h153.597656v34.132813h-48.640624zm-59.265624-35.566406 54.527343-32.714844 54.53125 32.714844zm28.929687 68.265625c1.683594 0 3.332031-.5 4.734375-1.433594l5.257812-3.507812-.5625 1.128906c-1.640624 3.285156-.996093 7.25 1.601563 9.847656l8.535156 8.53125c3.390625 3.277344 8.792969 3.183594 12.066407-.207031 3.195312-3.308594 3.195312-8.550781 0-11.855469l-4.183594-4.183593 4.660156-9.328126 14.355469 9.574219c1.402343.933594 3.050781 1.433594 4.734375 1.433594h51.199218c0 42.417969-34.382812 76.800781-76.800781 76.800781-42.414062 0-76.796875-34.382812-76.796875-76.800781zm100.855469 170.667969h-29.296875l11.382812-34.132813h12.230469zm-45.433594 22.816406 23.714844 18.996094-37.9375 23.722656zm-29.824219 35.527344-13.746093-41.277344h27.496093zm0-135.144532c8.660157-.019531 17.277344-1.242187 25.601563-3.636718v37.769531c0 4.714844 3.820312 8.535156 8.535156 8.535156h3.257812l-17.066406 34.132813h-40.636718l-17.464844-34.902344.082031-.058594c4.210937 2.011719 9.253906.230469 11.265625-3.976562.558594-1.164063.839844-2.441406.828125-3.730469v-37.769531c8.324219 2.394531 16.9375 3.617187 25.597656 3.636718zm196.269531 102.402344v102.398438h-55.410156c6.5625-19.628906 5.339844-41.03125-3.410156-59.785156l-.855469-1.800782.417969-23.59375c.085938-4.714844-3.667969-8.601562-8.378906-8.6875-4.714844-.085937-8.601563 3.667969-8.6875 8.378906l-.453125 25.601563c-.019531 1.316406.273437 2.621094.855469 3.804687l1.707031 3.601563c7.726562 16.605469 7.894531 35.742187.460937 52.480469h-113.980468v-37.929688l64.253906-40.167968c4-2.496094 5.214844-7.761719 2.71875-11.757813-.511719-.816406-1.15625-1.542969-1.90625-2.144531l-23.636719-18.933594h35.371094c4.710937 0 8.53125-3.824219 8.53125-8.535156 0-.472656-.039063-.941406-.117188-1.40625l-6.878906-41.257813h49.664063c32.972656.035157 59.695312 26.757813 59.734374 59.734375zm-95.660156-105.660156c-7.492187 17.515625-24.714844 28.871094-43.765625 28.859375h-14.175781v-35.960937c21.371094-10.976563 37.742188-29.699219 45.773438-52.34375l9.746093 17.066406c7.371094 12.976562 8.269531 28.648437 2.421875 42.378906zm6.058594-116.207031c7.070312 0 12.800781 5.730469 12.800781 12.796875 0 7.070312-5.730469 12.800781-12.800781 12.800781h-12.800781c4.714843 0 8.535156-3.820313 8.535156-8.53125v-17.066406zm-106.667969-153.601563c42.398438.046875 76.753907 34.402344 76.800781 76.800782v27.597656l-76.800781-46.082032-76.796875 46.082032v-27.597656c.046875-42.398438 34.402344-76.753907 76.796875-76.800782zm-119.464843 166.398438c0-7.066406 5.730468-12.796875 12.800781-12.796875h4.265625v17.066406c0 4.710937 3.820312 8.53125 8.535156 8.53125h-12.800781c-7.070313 0-12.800781-5.730469-12.800781-12.800781zm21.28125 61.023437 9.746093-17.066406c8.03125 22.644531 24.402344 41.371094 45.773438 52.351563v35.960937h-14.175781c-26.296876 0-47.617188-21.316406-47.621094-47.613281 0-8.289063 2.164062-16.433594 6.277344-23.632813zm-98.082032 148.046875c.039063-32.976562 26.757813-59.699218 59.734375-59.734375h49.664063l-6.878906 41.257813c-.777344 4.648437 2.359374 9.046875 7.007812 9.824218.464844.078126.933594.117188 1.40625.117188h35.40625l-23.671875 18.953125c-3.679687 2.945313-4.277344 8.3125-1.332031 11.992187.601562.753907 1.324218 1.398438 2.140625 1.90625l64.257812 40.152344v37.929688h-113.980469c-7.414062-16.742188-7.226562-35.875.511719-52.472656l1.707031-3.609376c.578126-1.183593.871094-2.488281.851563-3.804687l-.449219-25.601563c-.175781-4.679687-4.023437-8.382812-8.707031-8.378906-4.710937.078125-8.464844 3.964844-8.386719 8.675782v.011718l.453125 23.59375-.855469 1.851563c-8.757812 18.753906-9.976562 40.152343-3.414062 59.777343h-55.464844zm0 0"/><path d="m239.433594 460.800781h17.066406v17.066407h-17.066406zm0 0"/><path d="m192.960938 238.082031c13.148437 6.527344 28.597656 6.527344 41.746093 0 4.230469-2.074219 5.980469-7.1875 3.90625-11.417969-2.074219-4.234374-7.183593-5.984374-11.417969-3.910156-.039062.019532-.078124.039063-.117187.058594-8.34375 4.152344-18.152344 4.152344-26.496094 0-4.21875-2.101562-9.34375-.390625-11.449219 3.828125-2.101562 4.21875-.390624 9.34375 3.828126 11.449219zm0 0"/></svg>