<svg id="Layer_5" enable-background="new 0 0 64 64" height="512" viewBox="0 0 64 64" width="512" xmlns="http://www.w3.org/2000/svg"><g><g><g><path d="m14 62h-8v-1.06c0-2.27.95-4.34 2.5-5.8 1.16-1.12 2.67-1.88 4.37-2.12l5.68-.81 2.45 9.79z" fill="#b4dd7f"/></g><g><path d="m39.66 51.38-2.66 10.62h-10l-2.66-10.62 2.66-.38.34.5c1.04 1.56 2.79 2.5 4.66 2.5.94 0 1.84-.24 2.64-.66.8-.44 1.5-1.06 2.02-1.84l.34-.5z" fill="#b4dd7f"/></g><g><path d="m50 62h-7l2.45-9.79 5.68.81c1.7.24 3.21 1 4.37 2.12 1.55 1.46 2.5 3.53 2.5 5.8v1.06z" fill="#b4dd7f"/></g><g><path d="m24.34 51.38 2.66 10.62h-6l-2.45-9.79z" fill="#fcd770"/></g><g><path d="m45.45 52.21-2.45 9.79h-6l2.66-10.62z" fill="#fcd770"/></g><g><path d="m27.52 47.36-.52 3.64-2.66.38-5.79.83-5.68.81c-1.7.24-3.21 1-4.37 2.12-.31-.65-.5-1.37-.5-2.14 0-.54.09-1.07.25-1.55 1.38-4.17 1.75-8.6 1.75-12.99v-10.46c0 1.38.56 2.63 1.46 3.54.91.9 2.16 1.46 3.54 1.46h1.03c.25 4.02 1.98 7.64 4.65 10.32 1.88 1.87 4.22 3.28 6.84 4.04z" fill="#656d78"/></g><g><path d="m55.75 51.45c.16.48.25 1.01.25 1.55 0 .77-.19 1.49-.5 2.14-1.16-1.12-2.67-1.88-4.37-2.12l-5.68-.81-5.79-.83-2.66-.38-.52-3.64c6.35-1.84 11.07-7.52 11.49-14.36h1.03c2.76 0 5-2.24 5-5v10.46c0 4.39.37 8.82 1.75 12.99z" fill="#656d78"/></g><g><path d="m16 19v4h-1c-2.76 0-5 2.24-5 5v-4c0-6.08 2.46-11.58 6.44-15.56s9.48-6.44 15.56-6.44c12.15 0 22 9.85 22 22v4c0-1.38-.56-2.63-1.46-3.54-.91-.9-2.16-1.46-3.54-1.46h-1v-4l-6-4c-3.21 1.28-6.6 1.93-10 1.93s-6.79-.65-10-1.93z" fill="#656d78"/></g><g><path d="m36.48 47.36.52 3.64-.34.5c-.52.78-1.22 1.4-2.02 1.84-.8.42-1.7.66-2.64.66-1.87 0-3.62-.94-4.66-2.5l-.34-.5.52-3.64c1.42.42 2.92.64 4.48.64s3.06-.22 4.48-.64z" fill="#f0d0b4"/></g><g><path d="m49 23c1.38 0 2.63.56 3.54 1.46.9.91 1.46 2.16 1.46 3.54 0 2.76-2.24 5-5 5h-1.03c.02-.33.03-.66.03-1v-1.56-6.88-.56z" fill="#f0d0b4"/></g><g><path d="m37 33h8.44c1.41 0 2.56-1.15 2.56-2.56v1.56c0 .34-.01.67-.03 1-.42 6.84-5.14 12.52-11.49 14.36-1.42.42-2.92.64-4.48.64s-3.06-.22-4.48-.64c-2.62-.76-4.96-2.17-6.84-4.04-2.67-2.68-4.4-6.3-4.65-10.32-.02-.33-.03-.66-.03-1v-1.56c0 1.41 1.15 2.56 2.56 2.56h8.44c1.18 0 2.2-.8 2.49-1.94l.02-.12c.29-1.14 1.31-1.94 2.49-1.94s2.2.8 2.49 1.94l.02.12c.29 1.14 1.31 1.94 2.49 1.94z" fill="#f0d0b4"/></g><g><path d="m48 23.56c0-1.41-1.15-2.56-2.56-2.56h-26.88c-1.41 0-2.56 1.15-2.56 2.56v-.56-4l6-4c3.21 1.28 6.6 1.93 10 1.93s6.79-.65 10-1.93l6 4v4z" fill="#f0d0b4"/></g><g><path d="m16 23v.56 6.88 1.56c0 .34.01.67.03 1h-1.03c-1.38 0-2.63-.56-3.54-1.46-.9-.91-1.46-2.16-1.46-3.54 0-2.76 2.24-5 5-5z" fill="#f0d0b4"/></g><g><path d="m48 23.56v6.88c0 1.41-1.15 2.56-2.56 2.56h-8.44c-1.18 0-2.2-.8-2.49-1.94l-.02-.12c-.29-1.14-1.31-1.94-2.49-1.94s-2.2.8-2.49 1.94l-.02.12c-.29 1.14-1.31 1.94-2.49 1.94h-8.44c-1.41 0-2.56-1.15-2.56-2.56v-6.88c0-1.41 1.15-2.56 2.56-2.56h26.88c1.41 0 2.56 1.15 2.56 2.56z" fill="#69d6f4"/></g><g><circle cx="23" cy="27" fill="#838f9b" r="2"/></g><g><circle cx="41" cy="27" fill="#838f9b" r="2"/></g></g><g><path d="m41 24c-1.654 0-3 1.346-3 3s1.346 3 3 3 3-1.346 3-3-1.346-3-3-3zm0 4c-.552 0-1-.449-1-1s.448-1 1-1 1 .449 1 1-.448 1-1 1z"/><path d="m23 24c-1.654 0-3 1.346-3 3s1.346 3 3 3 3-1.346 3-3-1.346-3-3-3zm0 4c-.552 0-1-.449-1-1s.448-1 1-1 1 .449 1 1-.448 1-1 1z"/><path d="m32 42c3.309 0 6-2.691 6-6h-2c0 2.206-1.794 4-4 4s-4-1.794-4-4h-2c0 3.309 2.691 6 6 6z"/><path d="m56.669 54.925c.22-.629.331-1.274.331-1.925 0-.639-.102-1.267-.301-1.868-1.159-3.488-1.699-7.515-1.699-12.673v-14.459c0-12.682-10.317-23-23-23s-23 10.318-23 23v14.459c0 5.158-.54 9.185-1.699 12.672-.199.602-.301 1.23-.301 1.869 0 .651.111 1.296.331 1.925-1.45 1.609-2.331 3.728-2.331 6.013v2.062h54v-2.062c0-2.285-.881-4.404-2.331-6.013zm-33.075-2.428 2.126 8.503h-3.94l-1.99-7.96zm1.989-.285.936-.134c1.23 1.83 3.277 2.922 5.481 2.922s4.251-1.092 5.481-2.921l.936.134-2.197 8.787h-8.44zm-10.583-28.212v6.438 1.562c-2.206 0-4-1.794-4-4s1.794-4 4-4zm30.438 8h-8.438c-.718 0-1.341-.486-1.515-1.179l-.03-.123c-.396-1.589-1.817-2.698-3.455-2.698s-3.059 1.109-3.456 2.702l-.029.117c-.175.695-.797 1.181-1.515 1.181h-8.438c-.862 0-1.562-.701-1.562-1.562v-6.877c0-.86.7-1.561 1.562-1.561h26.877c.861 0 1.561.701 1.561 1.562v6.877c0 .86-.7 1.561-1.562 1.561zm3.562-1.562v-6.438c2.206 0 4 1.794 4 4s-1.794 4-4 4zm-2-10.062c-.474-.233-.999-.376-1.562-.376h-26.876c-.563 0-1.088.143-1.562.376v-.841l5.122-3.415c6.391 2.419 13.365 2.419 19.756 0l5.122 3.415zm-28.438 13.624h8.438c1.638 0 3.059-1.109 3.455-2.698l.029-.119c.175-.697.798-1.183 1.516-1.183s1.341.486 1.515 1.179l.03.123c.396 1.589 1.817 2.698 3.455 2.698h8.438c.522 0 1.014-.119 1.461-.322-.837 7.483-7.195 13.322-14.899 13.322s-14.062-5.839-14.9-13.322c.447.203.939.322 1.462.322zm13.438 15c1.252 0 2.47-.146 3.646-.404l.31 2.167-.124.186c-.856 1.284-2.289 2.051-3.832 2.051s-2.976-.767-3.832-2.051l-.124-.186.31-2.167c1.176.258 2.394.404 3.646.404zm8.406 3.497 3.803.543-1.989 7.96h-3.94zm-2.522-2.381-.297-2.079c6.027-2.106 10.514-7.504 11.285-14.037h.128c1.538 0 2.937-.586 4-1.54v6c0 5.378.572 9.605 1.801 13.303.132.397.199.813.199 1.237 0 .146-.034.291-.051.436-1.081-.719-2.327-1.214-3.676-1.407zm-5.884-47.116c11.417 0 20.716 9.162 20.976 20.518-1.06-.941-2.45-1.518-3.976-1.518v-3.535l-6.883-4.589-.488.196c-6.209 2.483-13.049 2.483-19.258 0l-.488-.196-6.883 4.589v3.535c-1.526 0-2.916.577-3.976 1.518.26-11.356 9.559-20.518 20.976-20.518zm-22.801 48.763c1.229-3.698 1.801-7.925 1.801-13.304v-6c1.063.954 2.462 1.54 4 1.54h.128c.77 6.533 5.257 11.931 11.285 14.038l-.297 2.079-13.39 1.913c-1.349.193-2.594.688-3.676 1.407-.016-.145-.05-.29-.05-.436 0-.424.067-.84.199-1.237zm-2.199 9.175c0-3.461 2.584-6.44 6.01-6.93l4.791-.684 1.919 7.676h-4.72v-4h-2v4h-6zm50 .062h-6v-4h-2v4h-4.72l1.919-7.676 4.791.684c3.426.49 6.01 3.469 6.01 6.93z"/></g></g></svg>