<svg id="_x33_0" enable-background="new 0 0 64 64" height="512" viewBox="0 0 64 64" width="512" xmlns="http://www.w3.org/2000/svg"><g><path d="m61 45h-2c-1.103 0-2 .897-2 2v2h-2v-4c0-1.103-.897-2-2-2h-2c-1.103 0-2 .897-2 2h-12v-6.252c.454-.143.875-.381 1.222-.727.921-.921 1.105-2.291.577-3.405l1.586-1.586c1.33 1.067 2.92 1.725 4.615 1.912v2.244c-1.161.414-2 1.514-2 2.816 0 1.654 1.346 3 3 3s3-1.346 3-3c0-1.302-.839-2.402-2-2.816v-2.244c1.695-.187 3.284-.845 4.615-1.912l1.587 1.587c-.528 1.114-.344 2.484.576 3.405.566.566 1.32.879 2.121.879s1.555-.312 2.121-.879c1.17-1.17 1.17-3.072 0-4.242-.887-.886-2.286-1.069-3.397-.568l-1.595-1.595c1.067-1.331 1.725-2.92 1.912-4.615h2.244c.414 1.161 1.514 2 2.816 2 1.654 0 3-1.346 3-3s-1.346-3-3-3c-1.302 0-2.402.839-2.816 2h-2.243c-.186-1.695-.845-3.284-1.912-4.615l1.585-1.585c.398.19.832.3 1.286.3.801 0 1.555-.312 2.121-.878s0 0 0 0c.566-.566.878-1.32.878-2.121s-.312-1.555-.878-2.121c-1.134-1.134-3.11-1.133-4.243 0-.567.567-.879 1.32-.879 2.122 0 .454.11.888.3 1.286l-1.585 1.585c-1.331-1.067-2.92-1.725-4.615-1.912v-2.243c1.161-.414 2-1.514 2-2.816 0-1.654-1.346-3-3-3s-3 1.346-3 3c0 1.302.839 2.402 2 2.816v2.244c-1.695.186-3.284.845-4.615 1.912l-1.584-1.59c.19-.398.3-.832.3-1.286 0-.801-.312-1.555-.878-2.121s0 0 0 0c-1.133-1.133-3.109-1.133-4.242 0-.236.236-.416.509-.559.8-.436-.328-.894-.634-1.395-.884l-1.026-.513v-2.382h2c1.103 0 2-.897 2-2v-6c0-1.103-.897-2-2-2h-28c-1.103 0-2 .897-2 2v6c0 1.103.897 2 2 2h2v2.382l-1.025.513c-3.069 1.534-4.975 4.618-4.975 8.049v36.056c0 2.757 2.243 5 5 5h26c2.414 0 4.434-1.721 4.899-4h12.101c0 1.103.897 2 2 2h2c1.103 0 2-.897 2-2v-4h2v2c0 1.103.897 2 2 2h2c1.103 0 2-.897 2-2v-10c0-1.103-.897-2-2-2zm-33.528 0c-2.923 0-5.556 1.525-7.041 4h-3.431c-1.103 0-2 .897-2 2h-12v-8h32v2zm-10.472 8v-2h3v2zm5 0v-2-.755c1.019-1.869 2.891-3.056 5-3.213v9.937c-2.109-.158-3.981-1.345-5-3.213zm10-30h3v2h-.184c-.414-1.161-1.514-2-2.816-2-1.654 0-3 1.346-3 3s1.346 3 3 3c1.302 0 2.402-.839 2.816-2h.184v6.13c-.377.141-.727.355-1.021.648-.87.87-1.09 2.144-.666 3.222h-30.313v-14zm5.386-4.2 1.585 1.585c-1.067 1.331-1.725 2.92-1.912 4.615h-.059v-3.056c0-1.003-.181-1.97-.488-2.884.306-.042.599-.128.874-.26zm5.259 1.056c.259.344.405.756.405 1.194 0 .534-.208 1.036-.586 1.414-.688.688-1.836.743-2.607.179.317-.577.714-1.114 1.193-1.593s1.017-.877 1.595-1.194zm2.648 2.608c.188-.189.439-.293.707-.293s.518.104.707.293c.39.39.39 1.024 0 1.415-.378.377-1.036.377-1.414 0-.39-.39-.39-1.025 0-1.415zm-3.473 9.142c.784-.722 2.005-.709 2.766.051.351.351.535.81.566 1.287-1.215-.147-2.355-.606-3.332-1.338zm-4.82 1.467v-6.073h.059c.186 1.695.845 3.284 1.912 4.615l-1.595 1.595c-.123-.055-.248-.099-.376-.137zm-4-7.073c0 .551-.449 1-1 1s-1-.449-1-1 .449-1 1-1 1 .449 1 1zm2 13v2h-32v-2zm1.807-2.394c-.377.379-1.036.379-1.414 0-.39-.39-.39-1.024 0-1.414.188-.189.439-.293.707-.293s.518.104.707.293c.39.39.39 1.025 0 1.414zm9.193 4.394c-.551 0-1-.448-1-1s.449-1 1-1 1 .448 1 1-.449 1-1 1zm5.657-13.586c.351-.351.811-.534 1.287-.565-.146 1.214-.606 2.354-1.338 3.331-.723-.783-.709-2.006.051-2.766zm4.242 7.485c.267 0 .518.104.707.293.39.39.39 1.024 0 1.414-.377.379-1.036.379-1.413 0-.39-.39-.39-1.024 0-1.414.188-.189.439-.293.706-.293zm4.101-9.899c.551 0 1 .449 1 1s-.449 1-1 1-1-.449-1-1 .449-1 1-1zm-4.807-9.606c.188-.189.439-.293.707-.293s.518.104.707.293c.189.188.293.439.293.707s-.104.518-.293.707c-.377.378-1.036.378-1.414 0-.189-.188-.293-.439-.293-.707s.103-.518.293-.707zm-2.296 9.445c-.983.042-1.931.438-2.655 1.161-1.541 1.541-1.553 4.033-.049 5.596-.896.674-1.929 1.118-3.032 1.301-.042-.983-.438-1.931-1.161-2.655-1.541-1.541-4.033-1.553-5.596-.049-.907-1.204-1.404-2.659-1.404-4.193 0-.493.054-.977.152-1.448.578.314 1.221.498 1.898.498.8 0 1.563-.234 2.213-.668.145.33.346.641.615.91.566.566 1.32.878 2.121.878s1.555-.312 2.121-.878c1.17-1.169 1.17-3.073 0-4.243-.819-.819-2.074-1.037-3.137-.673-.073-.433-.225-.842-.433-1.225.473-.097.957-.151 1.45-.151 1.87 0 3.627.728 4.95 2.05 1.044 1.044 1.71 2.361 1.947 3.789zm-6.897-13.839c.551 0 1 .449 1 1s-.449 1-1 1-1-.449-1-1 .449-1 1-1zm-10.606 4.394c.188-.189.439-.293.707-.293s.518.104.707.293c.189.188.293.439.293.707s-.104.518-.293.707c-.377.378-1.036.378-1.414 0-.189-.188-.293-.439-.293-.707s.104-.518.293-.707zm-30.394-12.394h28l.001 6h-28.001zm24 8v2h-20v-2zm-22.13 4.684 1.367-.684h21.527l1.367.684c1 .5 1.83 1.221 2.47 2.076.003.004.006.008.009.012.699.938 1.166 2.039 1.325 3.228h-31.87c.306-2.28 1.704-4.266 3.805-5.316zm25.13 45.316h-26c-1.654 0-3-1.346-3-3v-5h12c0 1.103.897 2 2 2h3.431c1.485 2.475 4.118 4 7.041 4h7.344c-.414 1.161-1.514 2-2.816 2zm17-4h-20v-10h2v6h2v-6h2v4h2v-4h2v6h2v-6h2v4h2v-4h4zm2 2v-14h2l.001 14zm4-6v-2h2v2zm4 4v-10h2l.001 10z"/><path d="m7 29h6v2h-6z"/><path d="m25 29h2v2h-2z"/><path d="m15 29h8v2h-8z"/><path d="m7 25h10v2h-10z"/><path d="m19 25h8v2h-8z"/></g></svg>